<?xml version="1.0" standalone="no"?>
<!DOCTYPE svg PUBLIC "-//W3C//DTD SVG 20010904//EN"
 "http://www.w3.org/TR/2001/REC-SVG-20010904/DTD/svg10.dtd">
<svg version="1.0" xmlns="http://www.w3.org/2000/svg"
 width="146.000000pt" height="146.000000pt" viewBox="0 0 146.000000 146.000000"
 preserveAspectRatio="xMidYMid meet">
<metadata>
Created by potrace 1.11, written by Peter Selinger 2001-2013
</metadata>
<g transform="translate(0.000000,146.000000) scale(0.100000,-0.100000)"
fill="#000000" stroke="none">
<path d="M596 1229 c-63 -15 -160 -66 -207 -108 -57 -51 -45 -63 17 -16 143
110 317 141 477 87 71 -24 86 -9 20 20 -38 17 -71 22 -158 24 -60 2 -127 -1
-149 -7z"/>
<path d="M640 1189 c-73 -12 -182 -67 -251 -127 -83 -71 -119 -86 -222 -90
-66 -3 -90 -8 -94 -19 -9 -23 16 -39 117 -72 l95 -31 0 -122 c0 -141 16 -195
83 -283 82 -108 192 -165 333 -173 181 -9 326 71 420 233 16 27 35 50 44 50 8
0 15 4 16 10 1 12 -301 115 -322 109 -9 -2 -27 4 -40 14 -13 10 -177 70 -364
132 -187 62 -343 115 -347 119 -4 3 25 6 65 6 89 0 156 29 239 101 106 93 215
131 352 121 66 -4 93 -12 162 -46 136 -68 217 -175 249 -330 25 -117 75 -195
165 -255 31 -20 16 -21 -40 -1 -44 15 -57 14 -46 -4 9 -14 104 -44 121 -37 30
11 15 43 -35 75 -76 49 -120 122 -140 231 -15 83 -74 193 -135 255 -65 65
-174 121 -265 135 -74 11 -84 11 -160 -1z m-271 -370 l36 -11 0 -91 c0 -81 4
-98 28 -144 34 -67 84 -116 150 -150 45 -24 64 -28 137 -28 71 0 94 4 141 26
64 30 120 82 149 139 l20 39 45 -16 c25 -8 45 -18 45 -21 0 -20 -64 -112 -102
-149 -162 -157 -417 -159 -581 -4 -94 89 -145 218 -134 339 9 88 9 88 66 71z"/>
<path d="M1007 1153 c-4 -3 26 -38 66 -77 58 -56 80 -87 107 -148 35 -77 50
-95 50 -60 0 34 -61 142 -112 197 -55 61 -102 98 -111 88z"/>
<path d="M261 1034 c-22 -10 -30 -19 -24 -25 11 -11 83 16 83 31 0 13 -18 11
-59 -6z"/>
<path d="M635 1027 c-78 -26 -161 -85 -152 -110 5 -16 556 -197 563 -186 9 16
-5 76 -21 89 -8 7 -15 23 -15 37 0 36 -90 126 -153 153 -63 28 -166 35 -222
17z"/>
<path d="M1230 775 c0 -36 35 -107 73 -145 44 -45 46 -21 2 35 -20 26 -41 67
-47 91 -13 48 -28 58 -28 19z"/>
<path d="M237 783 c-13 -12 -7 -128 8 -188 18 -69 67 -164 101 -196 35 -32 30
-7 -11 54 -49 74 -76 158 -79 250 -3 77 -7 93 -19 80z"/>
<path d="M1210 550 c0 -5 5 -10 10 -10 6 0 10 5 10 10 0 6 -4 10 -10 10 -5 0
-10 -4 -10 -10z"/>
<path d="M1136 485 c-18 -28 -21 -45 -6 -45 8 0 40 51 40 65 0 14 -19 3 -34
-20z"/>
<path d="M1054 379 c-140 -146 -394 -174 -577 -62 -60 36 -91 37 -47 1 69 -56
195 -98 293 -98 68 0 162 22 221 52 52 26 143 95 150 113 10 27 -11 24 -40 -6z"/>
<path d="M1182 364 c-26 -18 -30 -75 -6 -94 23 -20 75 -16 90 5 31 42 3 105
-46 105 -9 0 -26 -7 -38 -16z"/>
</g>
</svg>
